<mxfile host="app.diagrams.net" modified="2021-12-25T06:55:18.122Z" agent="5.0 (Windows NT 10.0; Win64; x64) AppleWebKit/537.36 (KHTML, like Gecko) Chrome/96.0.4664.110 Safari/537.36" etag="0vEDR2brni3zjgvh7XcK" version="16.1.0" type="github">
  <diagram id="3Crq4_KV-nDT9Y6_sYC2" name="Page-1">
    <mxGraphModel dx="2012" dy="643" grid="1" gridSize="10" guides="1" tooltips="1" connect="1" arrows="1" fold="1" page="1" pageScale="1" pageWidth="827" pageHeight="1169" math="0" shadow="0">
      <root>
        <mxCell id="0" />
        <mxCell id="1" parent="0" />
        <mxCell id="N5s0nT0ETq4uiykgFlMe-3" style="edgeStyle=orthogonalEdgeStyle;rounded=0;orthogonalLoop=1;jettySize=auto;html=1;" edge="1" parent="1" source="N5s0nT0ETq4uiykgFlMe-2">
          <mxGeometry relative="1" as="geometry">
            <mxPoint x="414" y="770" as="targetPoint" />
          </mxGeometry>
        </mxCell>
        <mxCell id="N5s0nT0ETq4uiykgFlMe-2" value="" style="rounded=1;whiteSpace=wrap;html=1;arcSize=4;fillColor=#f5f5f5;strokeColor=#666666;fontColor=#333333;fontStyle=1" vertex="1" parent="1">
          <mxGeometry x="9" y="110" width="810" height="630" as="geometry" />
        </mxCell>
        <mxCell id="N5s0nT0ETq4uiykgFlMe-4" value="&lt;h2&gt;COVID 19 TRACKER&lt;/h2&gt;" style="text;html=1;strokeColor=none;fillColor=none;align=center;verticalAlign=middle;whiteSpace=wrap;rounded=0;fontFamily=Tahoma;" vertex="1" parent="1">
          <mxGeometry x="-20" y="130" width="300" height="70" as="geometry" />
        </mxCell>
        <mxCell id="N5s0nT0ETq4uiykgFlMe-5" value="&lt;b&gt;Worldwide&lt;/b&gt;" style="rounded=1;whiteSpace=wrap;html=1;fontFamily=Tahoma;" vertex="1" parent="1">
          <mxGeometry x="300" y="152.5" width="140" height="25" as="geometry" />
        </mxCell>
        <mxCell id="N5s0nT0ETq4uiykgFlMe-6" value="" style="rounded=1;whiteSpace=wrap;html=1;fontFamily=Tahoma;" vertex="1" parent="1">
          <mxGeometry x="40" y="200" width="120" height="60" as="geometry" />
        </mxCell>
        <mxCell id="N5s0nT0ETq4uiykgFlMe-7" value="&lt;font style=&quot;font-size: 11px&quot;&gt;Coronavirus cases&lt;/font&gt;" style="text;html=1;strokeColor=none;fillColor=none;align=left;verticalAlign=middle;whiteSpace=wrap;rounded=0;fontFamily=Tahoma;" vertex="1" parent="1">
          <mxGeometry x="40" y="200" width="100" height="30" as="geometry" />
        </mxCell>
        <mxCell id="N5s0nT0ETq4uiykgFlMe-8" value="&lt;span style=&quot;font-size: 11px&quot;&gt;+2000&lt;/span&gt;" style="text;html=1;strokeColor=none;fillColor=none;align=left;verticalAlign=middle;whiteSpace=wrap;rounded=0;fontFamily=Tahoma;" vertex="1" parent="1">
          <mxGeometry x="40" y="215" width="100" height="30" as="geometry" />
        </mxCell>
        <mxCell id="N5s0nT0ETq4uiykgFlMe-9" value="&lt;span style=&quot;font-size: 11px&quot;&gt;1.2 M Total&lt;/span&gt;" style="text;html=1;strokeColor=none;fillColor=none;align=left;verticalAlign=middle;whiteSpace=wrap;rounded=0;fontFamily=Tahoma;" vertex="1" parent="1">
          <mxGeometry x="40" y="230" width="100" height="30" as="geometry" />
        </mxCell>
        <mxCell id="N5s0nT0ETq4uiykgFlMe-11" value="&lt;h2&gt;COVID 19 TRACKER&lt;/h2&gt;" style="text;html=1;strokeColor=none;fillColor=none;align=center;verticalAlign=middle;whiteSpace=wrap;rounded=0;fontFamily=Tahoma;" vertex="1" parent="1">
          <mxGeometry x="-20" y="130" width="300" height="70" as="geometry" />
        </mxCell>
        <mxCell id="N5s0nT0ETq4uiykgFlMe-12" value="" style="rounded=1;whiteSpace=wrap;html=1;fontFamily=Tahoma;fontSize=11;" vertex="1" parent="1">
          <mxGeometry x="180" y="200" width="120" height="60" as="geometry" />
        </mxCell>
        <mxCell id="N5s0nT0ETq4uiykgFlMe-13" value="" style="rounded=1;whiteSpace=wrap;html=1;fontFamily=Tahoma;fontSize=11;" vertex="1" parent="1">
          <mxGeometry x="320" y="200" width="120" height="60" as="geometry" />
        </mxCell>
        <mxCell id="N5s0nT0ETq4uiykgFlMe-15" value="Recovered" style="text;html=1;strokeColor=none;fillColor=none;align=left;verticalAlign=middle;whiteSpace=wrap;rounded=0;fontFamily=Tahoma;fontSize=11;" vertex="1" parent="1">
          <mxGeometry x="190" y="200" width="60" height="30" as="geometry" />
        </mxCell>
        <mxCell id="N5s0nT0ETq4uiykgFlMe-16" value="Deaths" style="text;html=1;strokeColor=none;fillColor=none;align=left;verticalAlign=middle;whiteSpace=wrap;rounded=0;fontFamily=Tahoma;fontSize=11;" vertex="1" parent="1">
          <mxGeometry x="330" y="200" width="60" height="30" as="geometry" />
        </mxCell>
        <mxCell id="N5s0nT0ETq4uiykgFlMe-17" value="+10000" style="text;html=1;strokeColor=none;fillColor=none;align=left;verticalAlign=middle;whiteSpace=wrap;rounded=0;fontFamily=Tahoma;fontSize=11;" vertex="1" parent="1">
          <mxGeometry x="190" y="215" width="60" height="30" as="geometry" />
        </mxCell>
        <mxCell id="N5s0nT0ETq4uiykgFlMe-18" value="5 M Total" style="text;html=1;strokeColor=none;fillColor=none;align=left;verticalAlign=middle;whiteSpace=wrap;rounded=0;fontFamily=Tahoma;fontSize=11;" vertex="1" parent="1">
          <mxGeometry x="190" y="230" width="60" height="30" as="geometry" />
        </mxCell>
        <mxCell id="N5s0nT0ETq4uiykgFlMe-19" value="+1000" style="text;html=1;strokeColor=none;fillColor=none;align=left;verticalAlign=middle;whiteSpace=wrap;rounded=0;fontFamily=Tahoma;fontSize=11;" vertex="1" parent="1">
          <mxGeometry x="330" y="215" width="60" height="30" as="geometry" />
        </mxCell>
        <mxCell id="N5s0nT0ETq4uiykgFlMe-20" value="1 M" style="text;html=1;strokeColor=none;fillColor=none;align=left;verticalAlign=middle;whiteSpace=wrap;rounded=0;fontFamily=Tahoma;fontSize=11;" vertex="1" parent="1">
          <mxGeometry x="330" y="230" width="60" height="30" as="geometry" />
        </mxCell>
        <mxCell id="N5s0nT0ETq4uiykgFlMe-24" value="" style="rounded=1;whiteSpace=wrap;html=1;fontFamily=Tahoma;fontSize=11;" vertex="1" parent="1">
          <mxGeometry x="40" y="280" width="400" height="430" as="geometry" />
        </mxCell>
        <mxCell id="N5s0nT0ETq4uiykgFlMe-25" value="" style="shape=image;html=1;verticalAlign=top;verticalLabelPosition=bottom;labelBackgroundColor=#ffffff;imageAspect=0;aspect=fixed;image=https://cdn2.iconfinder.com/data/icons/google-ios-7-app-icons/120/google_maps.png;fontFamily=Tahoma;fontSize=11;" vertex="1" parent="1">
          <mxGeometry x="180" y="420" width="120" height="120" as="geometry" />
        </mxCell>
        <mxCell id="N5s0nT0ETq4uiykgFlMe-26" value="" style="rounded=1;whiteSpace=wrap;html=1;fontFamily=Tahoma;fontSize=11;rotation=90;align=left;" vertex="1" parent="1">
          <mxGeometry x="347.5" y="267.5" width="565" height="325" as="geometry" />
        </mxCell>
        <mxCell id="N5s0nT0ETq4uiykgFlMe-27" style="edgeStyle=orthogonalEdgeStyle;rounded=0;orthogonalLoop=1;jettySize=auto;html=1;exitX=0;exitY=0.5;exitDx=0;exitDy=0;fontFamily=Tahoma;fontSize=11;" edge="1" parent="1" source="N5s0nT0ETq4uiykgFlMe-26" target="N5s0nT0ETq4uiykgFlMe-26">
          <mxGeometry relative="1" as="geometry" />
        </mxCell>
        <mxCell id="N5s0nT0ETq4uiykgFlMe-28" value="Cases by country" style="text;html=1;strokeColor=none;fillColor=none;align=left;verticalAlign=middle;whiteSpace=wrap;rounded=0;fontFamily=Tahoma;fontSize=16;fontStyle=1" vertex="1" parent="1">
          <mxGeometry x="480" y="177.5" width="160" height="40" as="geometry" />
        </mxCell>
        <mxCell id="N5s0nT0ETq4uiykgFlMe-29" value="Worldwide New Cases" style="text;html=1;strokeColor=none;fillColor=none;align=left;verticalAlign=middle;whiteSpace=wrap;rounded=0;fontFamily=Tahoma;fontSize=15;fontStyle=1" vertex="1" parent="1">
          <mxGeometry x="480" y="470" width="200" height="40" as="geometry" />
        </mxCell>
        <mxCell id="N5s0nT0ETq4uiykgFlMe-30" value="" style="shape=image;html=1;verticalAlign=top;verticalLabelPosition=bottom;labelBackgroundColor=#ffffff;imageAspect=0;aspect=fixed;image=https://cdn4.iconfinder.com/data/icons/iphone-calculator-shopping-report/128/barChart.png;fontFamily=Tahoma;fontSize=15;" vertex="1" parent="1">
          <mxGeometry x="480" y="500" width="198" height="198" as="geometry" />
        </mxCell>
        <mxCell id="N5s0nT0ETq4uiykgFlMe-31" value="" style="shape=table;html=1;whiteSpace=wrap;startSize=0;container=1;collapsible=0;childLayout=tableLayout;columnLines=0;rowLines=0;fontFamily=Tahoma;fontSize=16;" vertex="1" parent="1">
          <mxGeometry x="489" y="220" width="271" height="250" as="geometry" />
        </mxCell>
        <mxCell id="N5s0nT0ETq4uiykgFlMe-32" value="" style="shape=partialRectangle;html=1;whiteSpace=wrap;collapsible=0;dropTarget=0;pointerEvents=0;fillColor=none;top=0;left=0;bottom=0;right=0;points=[[0,0.5],[1,0.5]];portConstraint=eastwest;fontFamily=Tahoma;fontSize=16;" vertex="1" parent="N5s0nT0ETq4uiykgFlMe-31">
          <mxGeometry width="271" height="44" as="geometry" />
        </mxCell>
        <mxCell id="N5s0nT0ETq4uiykgFlMe-33" value="Value 1" style="shape=partialRectangle;html=1;whiteSpace=wrap;connectable=0;fillColor=none;top=0;left=0;bottom=0;right=0;overflow=hidden;pointerEvents=1;fontFamily=Tahoma;fontSize=16;" vertex="1" parent="N5s0nT0ETq4uiykgFlMe-32">
          <mxGeometry width="90" height="44" as="geometry">
            <mxRectangle width="90" height="44" as="alternateBounds" />
          </mxGeometry>
        </mxCell>
        <mxCell id="N5s0nT0ETq4uiykgFlMe-34" value="Value 2" style="shape=partialRectangle;html=1;whiteSpace=wrap;connectable=0;fillColor=none;top=0;left=0;bottom=0;right=0;overflow=hidden;pointerEvents=1;fontFamily=Tahoma;fontSize=16;" vertex="1" parent="N5s0nT0ETq4uiykgFlMe-32">
          <mxGeometry x="90" width="91" height="44" as="geometry">
            <mxRectangle width="91" height="44" as="alternateBounds" />
          </mxGeometry>
        </mxCell>
        <mxCell id="N5s0nT0ETq4uiykgFlMe-35" value="Value 3" style="shape=partialRectangle;html=1;whiteSpace=wrap;connectable=0;fillColor=none;top=0;left=0;bottom=0;right=0;overflow=hidden;pointerEvents=1;fontFamily=Tahoma;fontSize=16;" vertex="1" parent="N5s0nT0ETq4uiykgFlMe-32">
          <mxGeometry x="181" width="90" height="44" as="geometry">
            <mxRectangle width="90" height="44" as="alternateBounds" />
          </mxGeometry>
        </mxCell>
        <mxCell id="N5s0nT0ETq4uiykgFlMe-36" value="" style="shape=partialRectangle;html=1;whiteSpace=wrap;collapsible=0;dropTarget=0;pointerEvents=0;fillColor=none;top=0;left=0;bottom=0;right=0;points=[[0,0.5],[1,0.5]];portConstraint=eastwest;fontFamily=Tahoma;fontSize=16;" vertex="1" parent="N5s0nT0ETq4uiykgFlMe-31">
          <mxGeometry y="44" width="271" height="75" as="geometry" />
        </mxCell>
        <mxCell id="N5s0nT0ETq4uiykgFlMe-37" value="Value 4" style="shape=partialRectangle;html=1;whiteSpace=wrap;connectable=0;fillColor=none;top=0;left=0;bottom=0;right=0;overflow=hidden;pointerEvents=1;fontFamily=Tahoma;fontSize=16;" vertex="1" parent="N5s0nT0ETq4uiykgFlMe-36">
          <mxGeometry width="90" height="75" as="geometry">
            <mxRectangle width="90" height="75" as="alternateBounds" />
          </mxGeometry>
        </mxCell>
        <mxCell id="N5s0nT0ETq4uiykgFlMe-38" value="Value 5" style="shape=partialRectangle;html=1;whiteSpace=wrap;connectable=0;fillColor=none;top=0;left=0;bottom=0;right=0;overflow=hidden;pointerEvents=1;fontFamily=Tahoma;fontSize=16;" vertex="1" parent="N5s0nT0ETq4uiykgFlMe-36">
          <mxGeometry x="90" width="91" height="75" as="geometry">
            <mxRectangle width="91" height="75" as="alternateBounds" />
          </mxGeometry>
        </mxCell>
        <mxCell id="N5s0nT0ETq4uiykgFlMe-39" value="Value 6" style="shape=partialRectangle;html=1;whiteSpace=wrap;connectable=0;fillColor=none;top=0;left=0;bottom=0;right=0;overflow=hidden;pointerEvents=1;fontFamily=Tahoma;fontSize=16;" vertex="1" parent="N5s0nT0ETq4uiykgFlMe-36">
          <mxGeometry x="181" width="90" height="75" as="geometry">
            <mxRectangle width="90" height="75" as="alternateBounds" />
          </mxGeometry>
        </mxCell>
        <mxCell id="N5s0nT0ETq4uiykgFlMe-40" value="" style="shape=partialRectangle;html=1;whiteSpace=wrap;collapsible=0;dropTarget=0;pointerEvents=0;fillColor=none;top=0;left=0;bottom=0;right=0;points=[[0,0.5],[1,0.5]];portConstraint=eastwest;fontFamily=Tahoma;fontSize=16;" vertex="1" parent="N5s0nT0ETq4uiykgFlMe-31">
          <mxGeometry y="119" width="271" height="131" as="geometry" />
        </mxCell>
        <mxCell id="N5s0nT0ETq4uiykgFlMe-41" value="Value 7" style="shape=partialRectangle;html=1;whiteSpace=wrap;connectable=0;fillColor=none;top=0;left=0;bottom=0;right=0;overflow=hidden;pointerEvents=1;fontFamily=Tahoma;fontSize=16;" vertex="1" parent="N5s0nT0ETq4uiykgFlMe-40">
          <mxGeometry width="90" height="131" as="geometry">
            <mxRectangle width="90" height="131" as="alternateBounds" />
          </mxGeometry>
        </mxCell>
        <mxCell id="N5s0nT0ETq4uiykgFlMe-42" value="Value 8" style="shape=partialRectangle;html=1;whiteSpace=wrap;connectable=0;fillColor=none;top=0;left=0;bottom=0;right=0;overflow=hidden;pointerEvents=1;fontFamily=Tahoma;fontSize=16;" vertex="1" parent="N5s0nT0ETq4uiykgFlMe-40">
          <mxGeometry x="90" width="91" height="131" as="geometry">
            <mxRectangle width="91" height="131" as="alternateBounds" />
          </mxGeometry>
        </mxCell>
        <mxCell id="N5s0nT0ETq4uiykgFlMe-43" value="Value 9" style="shape=partialRectangle;html=1;whiteSpace=wrap;connectable=0;fillColor=none;top=0;left=0;bottom=0;right=0;overflow=hidden;pointerEvents=1;fontFamily=Tahoma;fontSize=16;" vertex="1" parent="N5s0nT0ETq4uiykgFlMe-40">
          <mxGeometry x="181" width="90" height="131" as="geometry">
            <mxRectangle width="90" height="131" as="alternateBounds" />
          </mxGeometry>
        </mxCell>
      </root>
    </mxGraphModel>
  </diagram>
</mxfile>
